<mxfile host="app.diagrams.net" modified="2023-07-24T09:08:27.332Z" agent="Mozilla/5.0 (Windows NT 10.0; Win64; x64) AppleWebKit/537.36 (KHTML, like Gecko) Chrome/114.0.0.0 Safari/537.36 Edg/114.0.1823.82" etag="wA-NYY9M7WtcbGl0vRFu" version="21.6.5" type="github">
  <diagram id="C5RBs43oDa-KdzZeNtuy" name="Page-1">
    <mxGraphModel dx="996" dy="581" grid="1" gridSize="10" guides="1" tooltips="1" connect="1" arrows="1" fold="1" page="1" pageScale="1" pageWidth="827" pageHeight="1169" math="0" shadow="0">
      <root>
        <mxCell id="WIyWlLk6GJQsqaUBKTNV-0" />
        <mxCell id="WIyWlLk6GJQsqaUBKTNV-1" parent="WIyWlLk6GJQsqaUBKTNV-0" />
        <mxCell id="rnY7UrIKa5mlGTqYV3wB-11" value="" style="edgeStyle=orthogonalEdgeStyle;rounded=0;orthogonalLoop=1;jettySize=auto;html=1;" edge="1" parent="WIyWlLk6GJQsqaUBKTNV-1" source="WIyWlLk6GJQsqaUBKTNV-3" target="rnY7UrIKa5mlGTqYV3wB-8">
          <mxGeometry relative="1" as="geometry" />
        </mxCell>
        <mxCell id="WIyWlLk6GJQsqaUBKTNV-3" value="输入一段临床描述信息" style="rounded=1;whiteSpace=wrap;html=1;fontSize=12;glass=0;strokeWidth=1;shadow=0;" parent="WIyWlLk6GJQsqaUBKTNV-1" vertex="1">
          <mxGeometry x="160" y="150" width="380" height="40" as="geometry" />
        </mxCell>
        <mxCell id="rnY7UrIKa5mlGTqYV3wB-10" value="" style="edgeStyle=orthogonalEdgeStyle;rounded=0;orthogonalLoop=1;jettySize=auto;html=1;" edge="1" parent="WIyWlLk6GJQsqaUBKTNV-1" source="rnY7UrIKa5mlGTqYV3wB-8" target="rnY7UrIKa5mlGTqYV3wB-9">
          <mxGeometry relative="1" as="geometry" />
        </mxCell>
        <mxCell id="rnY7UrIKa5mlGTqYV3wB-8" value="使用语义识别从临床信息中提取表型" style="rounded=1;whiteSpace=wrap;html=1;fontSize=12;glass=0;strokeWidth=1;shadow=0;" vertex="1" parent="WIyWlLk6GJQsqaUBKTNV-1">
          <mxGeometry x="160" y="230" width="380" height="40" as="geometry" />
        </mxCell>
        <mxCell id="rnY7UrIKa5mlGTqYV3wB-13" value="" style="edgeStyle=orthogonalEdgeStyle;rounded=0;orthogonalLoop=1;jettySize=auto;html=1;" edge="1" parent="WIyWlLk6GJQsqaUBKTNV-1" source="rnY7UrIKa5mlGTqYV3wB-9" target="rnY7UrIKa5mlGTqYV3wB-12">
          <mxGeometry relative="1" as="geometry" />
        </mxCell>
        <mxCell id="rnY7UrIKa5mlGTqYV3wB-9" value="使用语义相似度映射到标准表型" style="rounded=1;whiteSpace=wrap;html=1;fontSize=12;glass=0;strokeWidth=1;shadow=0;" vertex="1" parent="WIyWlLk6GJQsqaUBKTNV-1">
          <mxGeometry x="160" y="310" width="380" height="40" as="geometry" />
        </mxCell>
        <mxCell id="rnY7UrIKa5mlGTqYV3wB-35" value="" style="edgeStyle=orthogonalEdgeStyle;rounded=0;orthogonalLoop=1;jettySize=auto;html=1;" edge="1" parent="WIyWlLk6GJQsqaUBKTNV-1" source="rnY7UrIKa5mlGTqYV3wB-12" target="rnY7UrIKa5mlGTqYV3wB-32">
          <mxGeometry relative="1" as="geometry" />
        </mxCell>
        <mxCell id="rnY7UrIKa5mlGTqYV3wB-12" value="计算临床表述的表型列表与数据库中疾病的表型列表相似度" style="rounded=1;whiteSpace=wrap;html=1;fontSize=12;glass=0;strokeWidth=1;shadow=0;" vertex="1" parent="WIyWlLk6GJQsqaUBKTNV-1">
          <mxGeometry x="160" y="390" width="380" height="40" as="geometry" />
        </mxCell>
        <mxCell id="rnY7UrIKa5mlGTqYV3wB-14" value="根据表型-表型，表型-疾病，疾病-疾病关系构建表型-疾病网络数据库" style="rounded=1;whiteSpace=wrap;html=1;fontSize=12;glass=0;strokeWidth=1;shadow=0;" vertex="1" parent="WIyWlLk6GJQsqaUBKTNV-1">
          <mxGeometry x="160" y="70" width="380" height="40" as="geometry" />
        </mxCell>
        <mxCell id="rnY7UrIKa5mlGTqYV3wB-22" value="" style="endArrow=none;html=1;curved=1;" edge="1" parent="WIyWlLk6GJQsqaUBKTNV-1">
          <mxGeometry width="50" height="50" relative="1" as="geometry">
            <mxPoint x="540" y="90" as="sourcePoint" />
            <mxPoint x="580" y="60" as="targetPoint" />
            <Array as="points">
              <mxPoint x="550" y="90" />
              <mxPoint x="560" y="60" />
            </Array>
          </mxGeometry>
        </mxCell>
        <mxCell id="rnY7UrIKa5mlGTqYV3wB-23" value="步骤0" style="text;html=1;align=center;verticalAlign=middle;resizable=0;points=[];autosize=1;strokeColor=none;fillColor=none;" vertex="1" parent="WIyWlLk6GJQsqaUBKTNV-1">
          <mxGeometry x="575" y="48" width="50" height="30" as="geometry" />
        </mxCell>
        <mxCell id="rnY7UrIKa5mlGTqYV3wB-24" value="" style="endArrow=none;html=1;curved=1;" edge="1" parent="WIyWlLk6GJQsqaUBKTNV-1">
          <mxGeometry width="50" height="50" relative="1" as="geometry">
            <mxPoint x="540" y="172" as="sourcePoint" />
            <mxPoint x="580" y="142" as="targetPoint" />
            <Array as="points">
              <mxPoint x="550" y="172" />
              <mxPoint x="560" y="142" />
            </Array>
          </mxGeometry>
        </mxCell>
        <mxCell id="rnY7UrIKa5mlGTqYV3wB-25" value="步骤1" style="text;html=1;align=center;verticalAlign=middle;resizable=0;points=[];autosize=1;strokeColor=none;fillColor=none;" vertex="1" parent="WIyWlLk6GJQsqaUBKTNV-1">
          <mxGeometry x="575" y="130" width="50" height="30" as="geometry" />
        </mxCell>
        <mxCell id="rnY7UrIKa5mlGTqYV3wB-26" value="" style="endArrow=none;html=1;curved=1;" edge="1" parent="WIyWlLk6GJQsqaUBKTNV-1">
          <mxGeometry width="50" height="50" relative="1" as="geometry">
            <mxPoint x="540" y="252" as="sourcePoint" />
            <mxPoint x="580" y="222" as="targetPoint" />
            <Array as="points">
              <mxPoint x="550" y="252" />
              <mxPoint x="560" y="222" />
            </Array>
          </mxGeometry>
        </mxCell>
        <mxCell id="rnY7UrIKa5mlGTqYV3wB-27" value="步骤2" style="text;html=1;align=center;verticalAlign=middle;resizable=0;points=[];autosize=1;strokeColor=none;fillColor=none;" vertex="1" parent="WIyWlLk6GJQsqaUBKTNV-1">
          <mxGeometry x="575" y="210" width="50" height="30" as="geometry" />
        </mxCell>
        <mxCell id="rnY7UrIKa5mlGTqYV3wB-28" value="" style="endArrow=none;html=1;curved=1;" edge="1" parent="WIyWlLk6GJQsqaUBKTNV-1">
          <mxGeometry width="50" height="50" relative="1" as="geometry">
            <mxPoint x="540" y="332" as="sourcePoint" />
            <mxPoint x="580" y="302" as="targetPoint" />
            <Array as="points">
              <mxPoint x="550" y="332" />
              <mxPoint x="560" y="302" />
            </Array>
          </mxGeometry>
        </mxCell>
        <mxCell id="rnY7UrIKa5mlGTqYV3wB-29" value="步骤3" style="text;html=1;align=center;verticalAlign=middle;resizable=0;points=[];autosize=1;strokeColor=none;fillColor=none;" vertex="1" parent="WIyWlLk6GJQsqaUBKTNV-1">
          <mxGeometry x="575" y="290" width="50" height="30" as="geometry" />
        </mxCell>
        <mxCell id="rnY7UrIKa5mlGTqYV3wB-30" value="" style="endArrow=none;html=1;curved=1;" edge="1" parent="WIyWlLk6GJQsqaUBKTNV-1">
          <mxGeometry width="50" height="50" relative="1" as="geometry">
            <mxPoint x="540" y="412" as="sourcePoint" />
            <mxPoint x="580" y="382" as="targetPoint" />
            <Array as="points">
              <mxPoint x="550" y="412" />
              <mxPoint x="560" y="382" />
            </Array>
          </mxGeometry>
        </mxCell>
        <mxCell id="rnY7UrIKa5mlGTqYV3wB-31" value="步骤4" style="text;html=1;align=center;verticalAlign=middle;resizable=0;points=[];autosize=1;strokeColor=none;fillColor=none;" vertex="1" parent="WIyWlLk6GJQsqaUBKTNV-1">
          <mxGeometry x="575" y="370" width="50" height="30" as="geometry" />
        </mxCell>
        <mxCell id="rnY7UrIKa5mlGTqYV3wB-32" value="根据相似度排名输出预测的罕见疾病" style="rounded=1;whiteSpace=wrap;html=1;fontSize=12;glass=0;strokeWidth=1;shadow=0;" vertex="1" parent="WIyWlLk6GJQsqaUBKTNV-1">
          <mxGeometry x="160" y="470" width="380" height="40" as="geometry" />
        </mxCell>
        <mxCell id="rnY7UrIKa5mlGTqYV3wB-33" value="" style="endArrow=none;html=1;curved=1;" edge="1" parent="WIyWlLk6GJQsqaUBKTNV-1">
          <mxGeometry width="50" height="50" relative="1" as="geometry">
            <mxPoint x="540" y="492" as="sourcePoint" />
            <mxPoint x="580" y="462" as="targetPoint" />
            <Array as="points">
              <mxPoint x="550" y="492" />
              <mxPoint x="560" y="462" />
            </Array>
          </mxGeometry>
        </mxCell>
        <mxCell id="rnY7UrIKa5mlGTqYV3wB-34" value="步骤5" style="text;html=1;align=center;verticalAlign=middle;resizable=0;points=[];autosize=1;strokeColor=none;fillColor=none;" vertex="1" parent="WIyWlLk6GJQsqaUBKTNV-1">
          <mxGeometry x="575" y="450" width="50" height="30" as="geometry" />
        </mxCell>
      </root>
    </mxGraphModel>
  </diagram>
</mxfile>
